<?xml version="1.0" encoding="UTF-8" standalone="no"?>
<!-- Created with Inkscape (http://www.inkscape.org/) -->

<svg
   xmlns:dc="http://purl.org/dc/elements/1.1/"
   xmlns:cc="http://creativecommons.org/ns#"
   xmlns:rdf="http://www.w3.org/1999/02/22-rdf-syntax-ns#"
   xmlns:svg="http://www.w3.org/2000/svg"
   xmlns="http://www.w3.org/2000/svg"
   xmlns:sodipodi="http://sodipodi.sourceforge.net/DTD/sodipodi-0.dtd"
   xmlns:inkscape="http://www.inkscape.org/namespaces/inkscape"
   width="1024"
   height="1024"
   viewBox="0 0 270.93332 270.93334"
   version="1.1"
   id="svg8"
   sodipodi:docname="logo_mono.svg"
   inkscape:version="0.92.4 (5da689c313, 2019-01-14)">
  <defs
     id="defs2" />
  <sodipodi:namedview
     id="base"
     pagecolor="#ffffff"
     bordercolor="#666666"
     borderopacity="1.0"
     inkscape:pageopacity="0.0"
     inkscape:pageshadow="2"
     inkscape:zoom="0.7"
     inkscape:cx="544.50225"
     inkscape:cy="687.31617"
     inkscape:document-units="mm"
     inkscape:current-layer="g5034"
     showgrid="false"
     inkscape:pagecheckerboard="true"
     inkscape:window-width="1920"
     inkscape:window-height="1017"
     inkscape:window-x="1072"
     inkscape:window-y="843"
     inkscape:window-maximized="1"
     units="px"
     showguides="false" />
  <metadata
     id="metadata5">
    <rdf:RDF>
      <cc:Work
         rdf:about="">
        <dc:format>image/svg+xml</dc:format>
        <dc:type
           rdf:resource="http://purl.org/dc/dcmitype/StillImage" />
        <dc:title />
      </cc:Work>
    </rdf:RDF>
  </metadata>
  <g
     inkscape:label="Layer 1"
     inkscape:groupmode="layer"
     id="layer1"
     transform="translate(0,-26.06665)">
    <g
       id="g5034">
      <circle
         r="37.955563"
         cy="103.75305"
         cx="193.27069"
         id="path4893"
         style="opacity:1;vector-effect:none;fill:#ff6600;fill-opacity:1;fill-rule:nonzero;stroke:none;stroke-width:1.05194306;stroke-linecap:round;stroke-linejoin:round;stroke-miterlimit:4;stroke-dasharray:none;stroke-dashoffset:0;stroke-opacity:1;paint-order:normal" />
      <path
         sodipodi:nodetypes="cccccccccc"
         inkscape:connector-curvature="0"
         id="path4853-0"
         d="m 117.92924,171.76671 -12.16701,-6.99377 -15.634849,38.39846 -36.540138,-21.58277 -20.331806,27.95712 9.508305,25.69941 21.883695,-21.8723 31.069228,0.52587 12.115925,-45.50049 z"
         style="fill:#2b1100;stroke:none;stroke-width:0.32673118px;stroke-linecap:butt;stroke-linejoin:miter;stroke-opacity:1" />
      <path
         sodipodi:nodetypes="cccccccccc"
         inkscape:connector-curvature="0"
         id="path4853"
         d="m 121.58743,178.96834 -8.11784,-11.44769 -30.283318,28.31626 -24.137058,-34.90559 -30.173928,16.86765 -2.132844,27.31882 29.033886,-10.69239 27.990964,13.49367 30.063428,-36.23923 z"
         style="fill:#552200;stroke:none;stroke-width:0.32673118px;stroke-linecap:butt;stroke-linejoin:miter;stroke-opacity:1" />
      <path
         sodipodi:nodetypes="czzcczcszzczzzczcczzcczcc"
         inkscape:connector-curvature="0"
         id="path922"
         d="m 128.22064,169.2328 c 0,0 6.17304,12.35794 21.72539,15.94572 15.55236,3.5878 23.20721,-3.43138 29.69065,-9.79267 6.48344,-6.36129 9.27396,-23.54141 9.27396,-23.54141 l -10.2845,-8.85696 c 0,0 10.68555,-0.16748 13.48986,-4.1515 2.80432,-3.98401 -2.29028,-18.24755 -2.29028,-18.24755 0,0 -9.69224,0.5105 -13.14649,-2.5065 -4.31028,-3.76467 -0.35738,-5.48258 -4.88926,-15.78318 -4.5319,-10.300601 -13.91983,-15.197578 -20.69012,-17.58403 -6.77029,-2.386453 -15.91298,0.424048 -15.91298,0.424048 0,0 -12.88745,-10.347114 -19.73936,-11.3834 -6.85191,-1.036284 -10.58528,-0.03797 -18.32759,4.154144 -7.742309,4.192111 -17.288263,21.141772 -24.52192,26.084408 -7.233655,4.94262 -16.173659,5.54113 -16.173659,5.54113 0,0 -4.716778,9.65046 -3.710672,14.75504 1.006107,5.10461 9.875263,11.32796 9.875263,11.32796 L 47.858195,139.37 c 0,0 -0.458815,18.87925 3.696503,24.59483 4.155321,5.71558 10.273251,7.1783 15.684399,7.824 5.411147,0.6457 14.786664,-3.38722 14.786664,-3.38722 l -2.046039,9.79512 c 0,0 11.546972,6.95958 16.154735,7.23011 4.607763,0.27051 13.367573,-4.36425 13.367573,-4.36425 z"
         style="fill:#803300;stroke:none;stroke-width:0.32673118px;stroke-linecap:butt;stroke-linejoin:miter;stroke-opacity:1" />
      <path
         inkscape:connector-curvature="0"
         id="path815"
         d="m 165.01327,231.43197 -71.718765,1.916 14.538085,-64.94973 22.2217,-6.57501 z"
         style="fill:#552200;stroke:none;stroke-width:0.32673118px;stroke-linecap:butt;stroke-linejoin:miter;stroke-opacity:1" />
      <path
         sodipodi:nodetypes="ccccc"
         inkscape:connector-curvature="0"
         id="path1099"
         d="m 167.39374,232.50552 c -1.86706,0 -39.07708,0.90035 -39.07708,0.90035 l 0.87358,-70.13645 5.76375,-0.54435 z"
         style="fill:#2b1100;stroke:none;stroke-width:0.32673118px;stroke-linecap:butt;stroke-linejoin:miter;stroke-opacity:1" />
      <path
         sodipodi:nodetypes="cccc"
         inkscape:connector-curvature="0"
         id="path1088"
         d="m 106.60734,167.11465 12.82133,1.81838 13.98819,64.38441 -50.395387,3.29561"
         style="fill:#803300;stroke:none;stroke-width:0.32673118px;stroke-linecap:butt;stroke-linejoin:miter;stroke-opacity:1" />
      <path
         sodipodi:nodetypes="cccccc"
         inkscape:connector-curvature="0"
         id="path1101"
         d="m 142.07464,165.55115 c 7.48424,8.02869 3.22952,12.10292 4.25102,16.61248 -14.22992,3.85629 -25.74365,3.92364 -47.2632,0.70749 -1.452771,-5.96697 -3.125339,-11.17785 2.94115,-17.43879 13.33202,4.48122 28.39507,1.32573 40.07103,0.1188 z"
         style="fill:#aa4400;stroke:none;stroke-width:0.28524536px;stroke-linecap:butt;stroke-linejoin:miter;stroke-opacity:1" />
      <path
         sodipodi:nodetypes="czcccc"
         inkscape:connector-curvature="0"
         id="path817"
         d="m 162.1828,164.0148 c 0,0 -8.44921,10.74985 -41.76011,8.52091 -33.310884,-2.22894 -42.123869,-15.0964 -42.123869,-15.0964 0.642667,-16.60878 8.380347,-36.48518 20.189517,-57.35446 17.780902,-2.976014 35.705602,-0.779165 53.798232,7.45845 -1.38839,9.52828 2.47011,36.19724 9.89623,56.4715 z"
         style="fill:#ff6600;stroke:none;stroke-width:0.32673118px;stroke-linecap:butt;stroke-linejoin:miter;stroke-opacity:1" />
      <path
         inkscape:connector-curvature="0"
         id="path819"
         d="M 79.087383,208.1785 Z"
         style="fill:none;stroke:#000000;stroke-width:0.32673118px;stroke-linecap:butt;stroke-linejoin:miter;stroke-opacity:1" />
      <path
         sodipodi:nodetypes="zczcz"
         inkscape:connector-curvature="0"
         id="path942-4-0-1"
         d="m 133.45746,130.10518 c -6.20353,-0.78085 -6.89893,-6.04902 -6.89893,-6.04902 0,0 -0.952,7.52564 6.46598,8.55897 7.418,1.03332 8.55897,-6.466 8.55897,-6.466 0,0 -1.9225,4.73689 -8.12602,3.95605 z"
         style="opacity:1;vector-effect:none;fill:#000000;fill-opacity:1;fill-rule:nonzero;stroke:none;stroke-width:1.48644125;stroke-linecap:round;stroke-linejoin:round;stroke-miterlimit:4;stroke-dasharray:none;stroke-dashoffset:0;stroke-opacity:1;paint-order:normal" />
      <path
         sodipodi:nodetypes="cccccc"
         inkscape:connector-curvature="0"
         id="path926"
         d="m 134.44518,98.24926 c -6.92422,23.6728 -27.91983,41.40537 -40.516638,43.99225 -7.70622,1.2203 -13.64123,10.4276 -14.082981,21.12392 L 69.049199,153.82132 97.400487,88.922006 Z"
         style="fill:#803300;stroke:none;stroke-width:0.32673118px;stroke-linecap:butt;stroke-linejoin:miter;stroke-opacity:1" />
      <path
         sodipodi:nodetypes="czccc"
         inkscape:connector-curvature="0"
         id="path928"
         d="m 128.07442,95.952804 c 0,0 12.21691,15.853496 15.135,27.186576 2.91809,11.33307 20.92639,22.68788 20.92639,22.68788 l -9.62587,-46.250838 z"
         style="fill:#803300;stroke:none;stroke-width:0.32673118px;stroke-linecap:butt;stroke-linejoin:miter;stroke-opacity:1" />
      <path
         inkscape:connector-curvature="0"
         id="path932"
         d="m 130.05429,161.82323 1.17058,-8.20433"
         style="fill:none;stroke:#000000;stroke-width:1.23488963;stroke-linecap:round;stroke-linejoin:round;stroke-miterlimit:4;stroke-dasharray:none;stroke-opacity:1" />
      <ellipse
         transform="rotate(9.5402815)"
         ry="3.1194818"
         rx="5.8870721"
         cy="128.06644"
         cx="154.92776"
         id="path934"
         style="opacity:1;vector-effect:none;fill:#000000;fill-opacity:1;fill-rule:nonzero;stroke:none;stroke-width:0.40570509;stroke-linecap:round;stroke-linejoin:round;stroke-miterlimit:4;stroke-dasharray:none;stroke-dashoffset:0;stroke-opacity:1;paint-order:normal" />
      <path
         inkscape:connector-curvature="0"
         id="path936"
         d="m 130.05429,161.82323 -6.08606,7.47979"
         style="fill:none;stroke:#000000;stroke-width:1.23488963;stroke-linecap:round;stroke-linejoin:round;stroke-miterlimit:4;stroke-dasharray:none;stroke-opacity:1" />
      <path
         inkscape:connector-curvature="0"
         id="path938"
         d="m 130.05429,161.82323 5.60665,6.95401"
         style="fill:none;stroke:#000000;stroke-width:1.23488963;stroke-linecap:round;stroke-linejoin:round;stroke-miterlimit:4;stroke-dasharray:none;stroke-opacity:1" />
      <path
         sodipodi:nodetypes="zczcz"
         inkscape:connector-curvature="0"
         id="path942-4-0-1-3"
         d="m 147.43939,147.15515 c -6.20352,-0.78085 -6.89893,-6.04902 -6.89893,-6.04902 0,0 -0.952,7.52564 6.46599,8.55897 7.41798,1.03332 8.55897,-6.46599 8.55897,-6.46599 0,0 -1.9225,4.73687 -8.12603,3.95604 z"
         style="opacity:1;vector-effect:none;fill:#000000;fill-opacity:1;fill-rule:nonzero;stroke:none;stroke-width:1.48644137;stroke-linecap:round;stroke-linejoin:round;stroke-miterlimit:4;stroke-dasharray:none;stroke-dashoffset:0;stroke-opacity:1;paint-order:normal" />
      <path
         sodipodi:nodetypes="zczcz"
         inkscape:connector-curvature="0"
         id="path942-4-0-1-3-0"
         d="m 113.5256,142.88153 c -6.20353,-0.78084 -6.89894,-6.04902 -6.89894,-6.04902 0,0 -0.952,7.52564 6.46599,8.55897 7.41799,1.03332 8.55897,-6.46599 8.55897,-6.46599 0,0 -1.92249,4.73689 -8.12602,3.95604 z"
         style="opacity:1;vector-effect:none;fill:#000000;fill-opacity:1;fill-rule:nonzero;stroke:none;stroke-width:1.48644137;stroke-linecap:round;stroke-linejoin:round;stroke-miterlimit:4;stroke-dasharray:none;stroke-dashoffset:0;stroke-opacity:1;paint-order:normal" />
      <path
         sodipodi:nodetypes="ccccccc"
         inkscape:connector-curvature="0"
         id="path1026"
         d="m 121.82081,79.08194 -14.46953,5.601106 -7.934901,23.571324 -26.138496,8.63504 23.104565,-10.26868 7.001382,-26.605272 z"
         style="fill:#ff6600;stroke:none;stroke-width:0.32673118px;stroke-linecap:butt;stroke-linejoin:miter;stroke-opacity:1" />
      <path
         sodipodi:nodetypes="ccccccc"
         inkscape:connector-curvature="0"
         id="path1026-0"
         d="m 135.18687,85.138768 15.84347,7.588517 6.82949,23.915015 19.10743,6.87151 -16.00077,-8.36222 -5.75582,-26.902226 z"
         style="fill:#ff6600;stroke:none;stroke-width:0.32673118px;stroke-linecap:butt;stroke-linejoin:miter;stroke-opacity:1" />
      <path
         sodipodi:nodetypes="ccccc"
         inkscape:connector-curvature="0"
         id="path1026-7"
         d="M 128.1911,101.1455 116.81457,118.89194 92.717428,138.0778 114.66581,117.01904 Z"
         style="fill:#ff6600;stroke:none;stroke-width:0.32673118px;stroke-linecap:butt;stroke-linejoin:miter;stroke-opacity:1" />
      <g
         transform="matrix(1.2348896,0,0,1.2348896,42.005039,61.688741)"
         style="fill:#ff6600"
         id="g1136">
        <g
           style="fill:#ff6600"
           id="g1142">
          <g
             style="fill:#ff6600"
             id="g1148">
            <path
               style="fill:#ff6600;stroke:none;stroke-width:0.26458332px;stroke-linecap:butt;stroke-linejoin:miter;stroke-opacity:1"
               d="m 85.800593,92.325893 -8.315476,3.118302 -13.040177,-0.472469 -12.000743,2.267855 11.433778,-0.850445 13.985118,1.606399 8.315478,-2.267857 z"
               id="path1122"
               inkscape:connector-curvature="0" />
            <path
               style="fill:#ff6600;stroke:none;stroke-width:0.26458332px;stroke-linecap:butt;stroke-linejoin:miter;stroke-opacity:1"
               d="m 42.616815,90.341517 1.039434,4.913689 13.796132,-2.83482 17.953868,0.661458 4.724702,-1.606399 -5.197171,0.944941 -18.331846,-2.362351 z"
               id="path1124"
               inkscape:connector-curvature="0"
               sodipodi:nodetypes="cccccccc" />
            <path
               style="fill:#ff6600;stroke:none;stroke-width:0.26458332px;stroke-linecap:butt;stroke-linejoin:miter;stroke-opacity:1"
               d="m 85.895088,89.396575 -8.031995,4.535714 8.457217,-2.598584 z"
               id="path1128"
               inkscape:connector-curvature="0"
               sodipodi:nodetypes="cccc" />
            <path
               style="fill:#ff6600;stroke:none;stroke-width:0.26458332px;stroke-linecap:butt;stroke-linejoin:miter;stroke-opacity:1"
               d="m 45.215402,95.538688 4.346726,1.086681 -4.393973,1.228423 z"
               id="path1130"
               inkscape:connector-curvature="0" />
          </g>
        </g>
      </g>
      <rect
         ry="0"
         y="221.87817"
         x="9.779727"
         height="31.252722"
         width="251.37389"
         id="rect4887"
         style="opacity:1;vector-effect:none;fill:#552200;fill-opacity:1;fill-rule:nonzero;stroke:none;stroke-width:0.85203099;stroke-linecap:round;stroke-linejoin:round;stroke-miterlimit:4;stroke-dasharray:none;stroke-dashoffset:0;stroke-opacity:1;paint-order:normal" />
      <text
         id="text4891"
         y="243.69598"
         x="15.860588"
         style="font-style:normal;font-variant:normal;font-weight:normal;font-stretch:normal;font-size:19.93921471px;line-height:1.25;font-family:'Courier New';-inkscape-font-specification:'Courier New, Normal';font-variant-ligatures:normal;font-variant-caps:normal;font-variant-numeric:normal;font-feature-settings:normal;text-align:start;letter-spacing:0px;word-spacing:0px;writing-mode:lr-tb;text-anchor:start;fill:#ff6600;fill-opacity:1;stroke:none;stroke-width:0.03738555;"
         xml:space="preserve"><tspan
           style="font-style:normal;font-variant:normal;font-weight:normal;font-stretch:normal;font-size:19.93921471px;font-family:'Courier New';-inkscape-font-specification:'Courier New, Normal';font-variant-ligatures:normal;font-variant-caps:normal;font-variant-numeric:normal;font-feature-settings:normal;text-align:start;writing-mode:lr-tb;text-anchor:start;fill:#ff6600;stroke-width:0.03738555;"
           y="243.69598"
           x="15.860588"
           id="tspan4889"
           sodipodi:role="line">Crimester's Crimelab</tspan></text>
    </g>
  </g>
</svg>
